<?xml version="1.0" encoding="UTF-8"?>
<svg width="40px" height="40px" viewBox="0 0 40 40" version="1.1" xmlns="http://www.w3.org/2000/svg" xmlns:xlink="http://www.w3.org/1999/xlink">
    <title>Restaurant Marker</title>
    <g stroke="none" stroke-width="1" fill="none" fill-rule="evenodd">
        <g transform="translate(2, 0)">
            <path d="M18,0 C27.9411255,0 36,8.0588745 36,18 C36,27.9411255 27.9411255,36 18,36 C8.0588745,36 0,27.9411255 0,18 C0,8.0588745 8.0588745,0 18,0 Z" fill="#FF5A5F"></path>
            <path d="M18,3 C26.2842712,3 33,9.71572875 33,18 C33,26.2842712 26.2842712,33 18,33 C9.71572875,33 3,26.2842712 3,18 C3,9.71572875 9.71572875,3 18,3 Z" fill="#FFFFFF"></path>
            <path d="M25,13 C25,12.4 24.6,12 24,12 L22,12 L22,11 C22,10.4 21.6,10 21,10 C20.4,10 20,10.4 20,11 L20,12 L16,12 L16,11 C16,10.4 15.6,10 15,10 C14.4,10 14,10.4 14,11 L14,12 L12,12 C11.4,12 11,12.4 11,13 L11,25 C11,25.6 11.4,26 12,26 L24,26 C24.6,26 25,25.6 25,25 L25,13 Z M23,24 L13,24 L13,16 L23,16 L23,24 Z M23,14 L13,14 L13,13 L23,13 L23,14 Z" fill="#FF5A5F"></path>
            <path d="M20,18 L16,18 L16,22 L20,22 L20,18 Z" fill="#FF5A5F"></path>
        </g>
    </g>
</svg> 