<?xml version="1.0" encoding="UTF-8"?>
<svg width="40px" height="40px" viewBox="0 0 40 40" version="1.1" xmlns="http://www.w3.org/2000/svg" xmlns:xlink="http://www.w3.org/1999/xlink">
    <title>Delivery Vehicle Marker</title>
    <g stroke="none" stroke-width="1" fill="none" fill-rule="evenodd">
        <g transform="translate(2, 0)">
            <path d="M18,0 C27.9411255,0 36,8.0588745 36,18 C36,27.9411255 27.9411255,36 18,36 C8.0588745,36 0,27.9411255 0,18 C0,8.0588745 8.0588745,0 18,0 Z" fill="#484848"></path>
            <path d="M18,3 C26.2842712,3 33,9.71572875 33,18 C33,26.2842712 26.2842712,33 18,33 C9.71572875,33 3,26.2842712 3,18 C3,9.71572875 9.71572875,3 18,3 Z" fill="#FFFFFF"></path>
            <path d="M23,10 L23,11 L25,11 C25.55,11 26,11.45 26,12 L26,19 C26,19.55 25.55,20 25,20 L23,20 L23,21 C23,21.55 22.55,22 22,22 L21,22 C20.45,22 20,21.55 20,21 L20,20 L16,20 L16,21 C16,21.55 15.55,22 15,22 L14,22 C13.45,22 13,21.55 13,21 L13,20 L11,20 C10.45,20 10,19.55 10,19 L10,12 C10,11.45 10.45,11 11,11 L13,11 L13,10 L23,10 Z M13,16 L11,16 L11,19 L13,19 L13,16 Z M25,16 L23,16 L23,19 L25,19 L25,16 Z M25,12 L23,12 L23,15 L25,15 L25,12 Z M13,12 L11,12 L11,15 L13,15 L13,12 Z M22,11 L14,11 L14,19 L22,19 L22,11 Z" fill="#484848"></path>
        </g>
    </g>
</svg> 