<?xml version="1.0" encoding="UTF-8"?>
<svg width="40px" height="40px" viewBox="0 0 40 40" version="1.1" xmlns="http://www.w3.org/2000/svg" xmlns:xlink="http://www.w3.org/1999/xlink">
    <title>Delivery Location Marker</title>
    <g stroke="none" stroke-width="1" fill="none" fill-rule="evenodd">
        <g transform="translate(2, 0)">
            <path d="M18,0 C27.9411255,0 36,8.0588745 36,18 C36,27.9411255 27.9411255,36 18,36 C8.0588745,36 0,27.9411255 0,18 C0,8.0588745 8.0588745,0 18,0 Z" fill="#00A699"></path>
            <path d="M18,3 C26.2842712,3 33,9.71572875 33,18 C33,26.2842712 26.2842712,33 18,33 C9.71572875,33 3,26.2842712 3,18 C3,9.71572875 9.71572875,3 18,3 Z" fill="#FFFFFF"></path>
            <path d="M18,8 C14.13,8 11,11.13 11,15 C11,20.25 18,28 18,28 C18,28 25,20.25 25,15 C25,11.13 21.87,8 18,8 Z M18,17.5 C16.62,17.5 15.5,16.38 15.5,15 C15.5,13.62 16.62,12.5 18,12.5 C19.38,12.5 20.5,13.62 20.5,15 C20.5,16.38 19.38,17.5 18,17.5 Z" fill="#00A699"></path>
        </g>
    </g>
</svg> 